<?xml version="1.0" encoding="UTF-8" standalone="no" ?>
<!DOCTYPE svg PUBLIC "-//W3C//DTD SVG 1.1//EN" "http://www.w3.org/Graphics/SVG/1.1/DTD/svg11.dtd">
<svg xmlns="http://www.w3.org/2000/svg" xmlns:xlink="http://www.w3.org/1999/xlink" version="1.1" width="180" height="50" viewBox="0 0 180 50" xml:space="preserve">
<desc>Created with Fabric.js 4.6.0</desc>
<defs>
</defs>
<g transform="matrix(0.19 0 0 0.19 90 25)" id="RzCCueX4pDtvfEG1EuSul"  >
<g style="" vector-effect="non-scaling-stroke"   >
		<g transform="matrix(1 0 0 1 0 0)" id="QDqimscOLCX2erCF339S6"  >
<path style="stroke: none; stroke-width: 1; stroke-dasharray: none; stroke-linecap: butt; stroke-dashoffset: 0; stroke-linejoin: miter; stroke-miterlimit: 4; fill: none; fill-rule: nonzero; opacity: 1;" vector-effect="non-scaling-stroke"  transform=" translate(-400, -110)" d="M 0 220 L 0 0 L 800 0 L 800 220 z" stroke-linecap="round" />
</g>
		<g transform="matrix(1 0 0 1 -7.25 -28.15)" id="Nw8nS_qq5PbejAM8gMPwx"  >
<path style="stroke: none; stroke-width: 1; stroke-dasharray: none; stroke-linecap: butt; stroke-dashoffset: 0; stroke-linejoin: miter; stroke-miterlimit: 4; fill: rgb(65,65,65); fill-rule: nonzero; opacity: 1;" vector-effect="non-scaling-stroke"  transform=" translate(-392.75, -81.85)" d="M 359.5 143.9 L 359.5 18.2 C 359.5 17 360 16 361.1 15.2 C 362.20000000000005 14.399999999999999 363.5 14 365.20000000000005 14 C 366.80000000000007 14 368.20000000000005 14.4 369.30000000000007 15.2 C 370.4000000000001 16 371.00000000000006 17 371.00000000000006 18.2 L 371.00000000000006 77.5 C 373.1000000000001 73.6 376.20000000000005 70.3 380.30000000000007 67.8 C 384.4000000000001 65.2 389.1000000000001 64 394.50000000000006 64 C 403.20000000000005 64 410.6000000000001 67.2 416.80000000000007 73.7 C 423.00000000000006 80.10000000000001 426.00000000000006 87.9 426.00000000000006 97 L 426.00000000000006 116.2 C 426.00000000000006 125 422.80000000000007 132.8 416.6000000000001 139.6 C 410.30000000000007 146.4 403.00000000000006 149.7 394.80000000000007 149.7 C 389.50000000000006 149.7 384.6000000000001 148.39999999999998 380.1000000000001 145.7 C 375.6000000000001 143 372.50000000000006 139.79999999999998 370.6000000000001 136 L 370.6000000000001 143.9 C 370.6000000000001 145.1 370.1000000000001 146.20000000000002 369.00000000000006 147.1 C 367.90000000000003 148.1 366.6000000000001 148.5 365.1000000000001 148.5 C 363.6000000000001 148.5 362.2000000000001 148 361.1000000000001 147.1 C 360.1000000000001 146.2 359.50000000000006 145.1 359.50000000000006 143.9 Z M 371 121.60000000000001 C 371 124.80000000000001 373.2 128.4 377.6 132.70000000000002 C 382 136.9 387 139.00000000000003 392.70000000000005 139.00000000000003 C 398.4000000000001 139.00000000000003 403.70000000000005 136.70000000000002 408.1 132.00000000000003 C 412.5 127.30000000000004 414.6 122.10000000000002 414.6 116.20000000000003 L 414.6 97.00000000000003 C 414.6 91.30000000000003 412.40000000000003 86.10000000000002 408.1 81.60000000000002 C 403.70000000000005 77.00000000000003 398.6 74.80000000000003 392.6 74.80000000000003 C 387 74.80000000000003 381.90000000000003 76.80000000000003 377.6 80.90000000000002 C 373.1 85.00000000000001 371 90.30000000000003 371 97.00000000000003 L 371 121.60000000000002 Z" stroke-linecap="round" />
</g>
		<g transform="matrix(1 0 0 1 53.95 -22.85)" id="mDRqyx4bQaLk8-iVg31Kn"  >
<path style="stroke: none; stroke-width: 1; stroke-dasharray: none; stroke-linecap: butt; stroke-dashoffset: 0; stroke-linejoin: miter; stroke-miterlimit: 4; fill: rgb(65,65,65); fill-rule: nonzero; opacity: 1;" vector-effect="non-scaling-stroke"  transform=" translate(-453.95, -87.15)" d="M 448.5 38.1 C 447 36.6 446.2 34.9 446.2 32.9 C 446.2 30.9 447 29.2 448.5 27.799999999999997 C 450 26.399999999999995 451.9 25.699999999999996 454.1 25.699999999999996 C 456.30000000000007 25.699999999999996 458 26.399999999999995 459.5 27.799999999999997 C 461 29.2 461.7 30.9 461.7 32.9 C 461.7 34.9 461 36.6 459.5 38.1 C 458 39.6 456.2 40.300000000000004 454.1 40.300000000000004 C 452.00000000000006 40.300000000000004 450 39.6 448.5 38.1 Z M 448.5 143.9 L 448.5 69.3 C 448.5 68.1 449 67.1 450.1 66.3 C 451.20000000000005 65.5 452.5 65.1 454.20000000000005 65.1 C 455.80000000000007 65.1 457.20000000000005 65.5 458.30000000000007 66.3 C 459.4000000000001 67.1 460.00000000000006 68.1 460.00000000000006 69.3 L 460.00000000000006 144 C 460.00000000000006 145.2 459.40000000000003 146.2 458.20000000000005 147.2 C 457.00000000000006 148.1 455.70000000000005 148.6 454.1 148.6 C 452.6 148.6 451.20000000000005 148.1 450.1 147.2 C 449 146.1 448.5 145.1 448.5 143.89999999999998 Z" stroke-linecap="round" />
</g>
		<g transform="matrix(1 0 0 1 104.5 -23.1)" id="j9pjd9zY578UJWz0O9yeA"  >
<path style="stroke: none; stroke-width: 1; stroke-dasharray: none; stroke-linecap: butt; stroke-dashoffset: 0; stroke-linejoin: miter; stroke-miterlimit: 4; fill: rgb(65,65,65); fill-rule: nonzero; opacity: 1;" vector-effect="non-scaling-stroke"  transform=" translate(-504.5, -86.9)" d="M 485.3 122.6 L 485.3 29.7 C 485.3 28.5 485.90000000000003 27.5 487.1 26.7 C 488.3 25.9 489.6 25.5 491 25.5 C 492.5 25.5 493.9 25.9 495.1 26.7 C 496.3 27.5 496.90000000000003 28.5 496.90000000000003 29.7 L 496.90000000000003 65 L 519.7 65 C 520.9000000000001 65 521.8000000000001 65.5 522.6 66.4 C 523.4 67.4 523.7 68.5 523.7 69.80000000000001 C 523.7 71.10000000000002 523.3000000000001 72.30000000000001 522.6 73.20000000000002 C 521.8000000000001 74.20000000000002 520.9 74.60000000000002 519.7 74.60000000000002 L 496.90000000000003 74.60000000000002 L 496.90000000000003 122.20000000000002 C 496.90000000000003 127.90000000000002 498.1 131.9 500.50000000000006 134.20000000000002 C 502.9000000000001 136.50000000000003 507.20000000000005 137.60000000000002 513.3000000000001 137.60000000000002 L 518.2 137.60000000000002 C 519.7 137.60000000000002 521 138.10000000000002 522 139.20000000000002 C 523 140.20000000000002 523.5 141.50000000000003 523.5 142.9 C 523.5 144.4 523 145.6 522 146.70000000000002 C 521 147.80000000000004 519.7 148.3 518.2 148.3 L 513.3000000000001 148.3 C 494.6000000000001 148.5 485.30000000000007 139.9 485.30000000000007 122.60000000000001 Z" stroke-linecap="round" />
</g>
		<g transform="matrix(1 0 0 1 175.2 -28.45)" id="VQjUp-JX3INGOzGqDsVge"  >
<path style="stroke: none; stroke-width: 1; stroke-dasharray: none; stroke-linecap: butt; stroke-dashoffset: 0; stroke-linejoin: miter; stroke-miterlimit: 4; fill: rgb(65,65,65); fill-rule: nonzero; opacity: 1;" vector-effect="non-scaling-stroke"  transform=" translate(-575.2, -81.55)" d="M 541.6 143.9 L 541.6 18.1 C 541.6 16.900000000000002 542.1 15.900000000000002 543.2 15.100000000000001 C 544.3000000000001 14.3 545.6 13.900000000000002 547.3000000000001 13.900000000000002 C 548.9000000000001 13.900000000000002 550.3000000000001 14.300000000000002 551.4000000000001 15.100000000000001 C 552.5000000000001 15.9 553.1000000000001 16.900000000000002 553.1000000000001 18.1 L 553.1000000000001 104.1 L 596.2000000000002 65.8 C 597.4000000000002 65.1 598.3000000000002 64.7 598.8000000000002 64.7 C 600.2000000000002 64.7 601.5000000000002 65.3 602.8000000000002 66.4 C 604.0000000000002 67.5 604.7000000000002 68.80000000000001 604.7000000000002 70.2 C 604.7000000000002 71.6 604.3000000000002 72.7 603.5000000000001 73.4 L 577.6000000000001 96.2 L 608.1000000000001 140.9 C 608.6000000000001 141.8 608.8000000000002 142.70000000000002 608.8000000000002 143.4 C 608.8000000000002 144.70000000000002 608.2000000000002 146 606.9000000000002 147.3 C 605.6000000000003 148.60000000000002 604.2000000000002 149.20000000000002 602.7000000000002 149.20000000000002 C 601.3000000000002 149.20000000000002 600.1000000000001 148.50000000000003 599.2000000000002 147.10000000000002 L 569.5000000000001 103.50000000000003 L 553.3000000000001 117.80000000000003 L 553.3000000000001 144.10000000000002 C 553.3000000000001 145.3 552.7 146.3 551.6 147.3 C 550.5 148.20000000000002 549.1 148.70000000000002 547.5 148.70000000000002 C 546 148.70000000000002 544.6 148.20000000000002 543.5 147.3 C 542.2 146.10000000000002 541.6 145.10000000000002 541.6 143.9 Z" stroke-linecap="round" />
</g>
		<g transform="matrix(1 0 0 1 258.35 -2.65)" id="hYR0BsjRFlT_NQe9cZ09R"  >
<path style="stroke: none; stroke-width: 1; stroke-dasharray: none; stroke-linecap: butt; stroke-dashoffset: 0; stroke-linejoin: miter; stroke-miterlimit: 4; fill: rgb(65,65,65); fill-rule: nonzero; opacity: 1;" vector-effect="non-scaling-stroke"  transform=" translate(-658.35, -107.35)" d="M 624.8 116.6 L 624.8 69.39999999999999 C 624.8 68.3 625.4 67.3 626.5 66.39999999999999 C 627.6 65.49999999999999 629 64.99999999999999 630.6 64.99999999999999 C 632 64.99999999999999 633.3000000000001 65.49999999999999 634.5 66.39999999999999 C 635.6999999999999 67.3 636.3 68.3 636.3 69.39999999999999 L 636.3 116.39999999999999 C 636.3 122.3 638.5 127.49999999999999 642.8 132.1 C 647.1999999999999 136.7 652.3 139 658.3 139 C 664.3 139 669.5 136.7 673.8 132.1 C 678.0999999999999 127.5 680.3 122.3 680.3 116.39999999999999 L 680.3 69.19999999999999 C 680.3 67.99999999999999 680.9 66.99999999999999 682.0999999999999 66.19999999999999 C 683.2999999999998 65.39999999999999 684.5999999999999 64.99999999999999 686.1999999999999 64.99999999999999 C 687.6999999999999 64.99999999999999 689.0999999999999 65.39999999999999 690.1999999999999 66.19999999999999 C 691.3 66.99999999999999 691.9 67.99999999999999 691.9 69.19999999999999 L 691.9 116.49999999999999 C 691.9 125.29999999999998 688.6 133.1 681.9 139.7 C 675.3 146.29999999999998 667.4 149.7 658.3 149.7 C 649.1999999999999 149.7 641.1999999999999 146.39999999999998 634.5999999999999 139.7 C 628.0999999999999 133.1 624.8 125.39999999999999 624.8 116.6 Z" stroke-linecap="round" />
</g>
		<g transform="matrix(1 0 0 1 350 -28.15)" id="CaBbm9fNMiOtUzaaX4dRJ"  >
<path style="stroke: none; stroke-width: 1; stroke-dasharray: none; stroke-linecap: butt; stroke-dashoffset: 0; stroke-linejoin: miter; stroke-miterlimit: 4; fill: rgb(65,65,65); fill-rule: nonzero; opacity: 1;" vector-effect="non-scaling-stroke"  transform=" translate(-750, -81.85)" d="M 716.7 143.9 L 716.7 18.2 C 716.7 17 717.2 16 718.3000000000001 15.2 C 719.4000000000001 14.399999999999999 720.7 14 722.4000000000001 14 C 724.0000000000001 14 725.4000000000001 14.4 726.5000000000001 15.2 C 727.6000000000001 16 728.2000000000002 17 728.2000000000002 18.2 L 728.2000000000002 77.5 C 730.3000000000002 73.6 733.4000000000002 70.3 737.5000000000001 67.8 C 741.6000000000001 65.2 746.3000000000001 64 751.7000000000002 64 C 760.4000000000002 64 767.9000000000002 67.2 774.0000000000001 73.7 C 780.2000000000002 80.2 783.3000000000001 87.9 783.3000000000001 97 L 783.3000000000001 116.2 C 783.3000000000001 125 780.2 132.8 773.9000000000001 139.6 C 767.6000000000001 146.4 760.3000000000001 149.7 752.1000000000001 149.7 C 746.8000000000002 149.7 741.9000000000001 148.39999999999998 737.4000000000001 145.7 C 732.9000000000001 143 729.8000000000001 139.79999999999998 727.9000000000001 136 L 727.9000000000001 143.9 C 727.9000000000001 145.1 727.4000000000001 146.20000000000002 726.3000000000001 147.1 C 725.2 148.1 723.9000000000001 148.5 722.4000000000001 148.5 C 720.9000000000001 148.5 719.5000000000001 148 718.4000000000001 147.1 C 717.3000000000001 146.2 716.7 145.1 716.7 143.9 Z M 728.2 121.60000000000001 C 728.2 124.80000000000001 730.4000000000001 128.4 734.8000000000001 132.70000000000002 C 739.2 137.00000000000003 744.2 139.00000000000003 749.9000000000001 139.00000000000003 C 755.6000000000001 139.00000000000003 760.9000000000001 136.70000000000002 765.3000000000001 132.00000000000003 C 769.7 127.30000000000004 771.8000000000001 122.10000000000002 771.8000000000001 116.20000000000003 L 771.8000000000001 97.00000000000003 C 771.8000000000001 91.30000000000003 769.6 86.10000000000002 765.3000000000001 81.60000000000002 C 760.9000000000001 77.00000000000003 755.8000000000001 74.80000000000003 749.8000000000001 74.80000000000003 C 744.2 74.80000000000003 739.1 76.80000000000003 734.8000000000001 80.90000000000002 C 730.4000000000001 85.00000000000001 728.3000000000001 90.40000000000002 728.3000000000001 97.10000000000002 L 728.3000000000001 121.60000000000002 L 728.2 121.60000000000002 Z" stroke-linecap="round" />
</g>
		<g transform="matrix(1 0 0 1 -294.27 -0.48)" id="rY1O4sXAtFd6xq0NRRwv9"  >
<path style="stroke: none; stroke-width: 1; stroke-dasharray: none; stroke-linecap: butt; stroke-dashoffset: 0; stroke-linejoin: miter; stroke-miterlimit: 4; fill: rgb(2,215,103); fill-rule: nonzero; opacity: 1;" vector-effect="non-scaling-stroke"  transform=" translate(-19.5, -19.5)" d="M 0 19.5 C 0 8.73045 8.73045 0 19.5 0 C 30.269550000000002 0 39 8.73045 39 19.5 C 39 30.269550000000002 30.269550000000002 39 19.5 39 C 8.73045 39 0 30.269550000000002 0 19.5 z" stroke-linecap="round" />
</g>
		<g transform="matrix(1 0 0 1 -307.8 0.05)" id="HHFEVhJnUo7LarEMaLeoR"  >
<path style="stroke: none; stroke-width: 1; stroke-dasharray: none; stroke-linecap: butt; stroke-dashoffset: 0; stroke-linejoin: miter; stroke-miterlimit: 4; fill: rgb(2,215,103); fill-rule: nonzero; opacity: 1;" vector-effect="non-scaling-stroke"  transform=" translate(-92.2, -110.05)" d="M 174.4 82.6 L 105.9 13.8 L 104.60000000000001 15.100000000000001 L 104.60000000000001 15.100000000000001 L 10 109.3 L 10 109.3 L 10.2 109.5 L 106.10000000000001 206.3 C 106.10000000000001 206.3 124 182.70000000000002 106.4 165 C 95.60000000000001 154.2 69.5 127.9 50.900000000000006 109.3 L 105.5 54.9 C 117.5 67 131 80.5 133.6 83.1 C 157.5 107.1 174.39999999999998 82.6 174.39999999999998 82.6 Z" stroke-linecap="round" />
</g>
		<g transform="matrix(1 0 0 1 -170.7 -0.1)" id="oEOyNSW9ojV8c_gJfhU2c"  >
<path style="stroke: none; stroke-width: 1; stroke-dasharray: none; stroke-linecap: butt; stroke-dashoffset: 0; stroke-linejoin: miter; stroke-miterlimit: 4; fill: rgb(2,215,103); fill-rule: nonzero; opacity: 1;" vector-effect="non-scaling-stroke"  transform=" translate(-229.3, -109.9)" d="M 311.8 109.8 L 216.2 13.8 C 216.2 13.8 198.6 36.7 215.29999999999998 53.400000000000006 C 225.7 63.800000000000004 252.79999999999998 91 271.7 110 L 215.89999999999998 165.5 C 207.49999999999997 157.1 197.89999999999998 147.5 189.89999999999998 139.4 C 171.39999999999998 120.80000000000001 146.79999999999998 137.6 146.79999999999998 137.6 L 215 206 L 217.2 203.8 L 217.2 203.8 L 311.79999999999995 109.80000000000001 Z" stroke-linecap="round" />
</g>
		<g transform="matrix(1 0 0 1 -183.65 -0.23)" id="czOWlpnDUyJ18-6ZKez-8"  >
<path style="stroke: none; stroke-width: 1; stroke-dasharray: none; stroke-linecap: butt; stroke-dashoffset: 0; stroke-linejoin: miter; stroke-miterlimit: 4; fill: rgb(2,215,103); fill-rule: nonzero; opacity: 1;" vector-effect="non-scaling-stroke"  transform=" translate(-216.35, -109.77)" d="M 230.1 123.6 C 237.7 116 237.7 103.6 230.2 96 C 222.6 88.4 210.2 88.4 202.6 95.9 C 195 103.5 195 115.9 202.5 123.5 C 210 131.1 222.5 131.2 230.1 123.6 Z" stroke-linecap="round" />
</g>
		<g transform="matrix(1 0 0 1 -28.15 77.75)" id="pW4xHF2w4dDEGZPIBcsU9"  >
<path style="stroke: none; stroke-width: 1; stroke-dasharray: none; stroke-linecap: butt; stroke-dashoffset: 0; stroke-linejoin: miter; stroke-miterlimit: 4; fill: rgb(65,65,65); fill-rule: nonzero; opacity: 1;" vector-effect="non-scaling-stroke"  transform=" translate(-371.85, -187.75)" d="M 362 204 L 362 171.4 C 362 171 362.1 170.70000000000002 362.4 170.5 C 362.69999999999993 170.29999999999998 363 170.2 363.4 170.2 L 380.5 170.2 C 381.3 170.2 381.7 170.7 381.7 171.6 C 381.7 172 381.59999999999997 172.4 381.4 172.7 C 381.2 173 380.9 173.2 380.5 173.2 L 365.1 173.2 L 365.1 186.39999999999998 L 372.6 186.39999999999998 C 373 186.39999999999998 373.3 186.49999999999997 373.5 186.79999999999998 C 373.7 187.1 373.8 187.39999999999998 373.8 187.79999999999998 C 373.8 188.7 373.40000000000003 189.1 372.6 189.1 L 365.1 189.1 L 365.1 202.4 L 380.5 202.4 C 380.9 202.4 381.1 202.5 381.4 202.8 C 381.59999999999997 203.10000000000002 381.7 203.4 381.7 203.9 C 381.7 204.9 381.3 205.3 380.5 205.3 L 363.4 205.3 C 363 205.3 362.7 205.20000000000002 362.4 205 C 362.09999999999997 204.6 362 204.3 362 204 Z" stroke-linecap="round" />
</g>
		<g transform="matrix(1 0 0 1 25.75 77.7)" id="jQi_ns4XBuMzX5uALaDMO"  >
<path style="stroke: none; stroke-width: 1; stroke-dasharray: none; stroke-linecap: butt; stroke-dashoffset: 0; stroke-linejoin: miter; stroke-miterlimit: 4; fill: rgb(65,65,65); fill-rule: nonzero; opacity: 1;" vector-effect="non-scaling-stroke"  transform=" translate(-425.75, -187.7)" d="M 415.3 203.7 C 415.3 203.39999999999998 415.40000000000003 203.2 415.5 202.89999999999998 L 423.8 187.59999999999997 L 415.7 172.39999999999998 C 415.5 171.99999999999997 415.4 171.7 415.4 171.39999999999998 C 415.4 170.99999999999997 415.59999999999997 170.7 416 170.39999999999998 C 416.40000000000003 170.09999999999997 416.8 169.99999999999997 417.3 169.99999999999997 C 417.8 169.99999999999997 418.40000000000003 170.49999999999997 418.90000000000003 171.59999999999997 L 425.8 184.79999999999995 L 432.7 171.59999999999997 C 433.3 170.49999999999997 433.8 169.99999999999997 434.3 169.99999999999997 C 434.8 169.99999999999997 435.3 170.09999999999997 435.6 170.39999999999998 C 436 170.7 436.20000000000005 170.99999999999997 436.20000000000005 171.39999999999998 C 436.20000000000005 171.7 436.1 172.09999999999997 435.90000000000003 172.39999999999998 L 427.70000000000005 187.59999999999997 L 436.00000000000006 202.99999999999997 C 436.1000000000001 203.29999999999998 436.20000000000005 203.49999999999997 436.20000000000005 203.79999999999998 C 436.20000000000005 204.2 436.00000000000006 204.6 435.6 204.89999999999998 C 435.2 205.19999999999996 434.8 205.39999999999998 434.3 205.39999999999998 C 433.8 205.39999999999998 433.3 204.89999999999998 432.8 203.89999999999998 L 425.7 190.49999999999997 L 418.59999999999997 203.89999999999998 C 418.09999999999997 204.89999999999998 417.59999999999997 205.39999999999998 417.09999999999997 205.39999999999998 C 416.7 205.39999999999998 416.2 205.2 415.79999999999995 204.89999999999998 C 415.49999999999994 204.49999999999997 415.29999999999995 204.09999999999997 415.29999999999995 203.7 Z" stroke-linecap="round" />
</g>
		<g transform="matrix(1 0 0 1 81.55 77.85)" id="fjxNweLm-QgI3WpiYDrew"  >
<path style="stroke: none; stroke-width: 1; stroke-dasharray: none; stroke-linecap: butt; stroke-dashoffset: 0; stroke-linejoin: miter; stroke-miterlimit: 4; fill: rgb(65,65,65); fill-rule: nonzero; opacity: 1;" vector-effect="non-scaling-stroke"  transform=" translate(-481.55, -187.85)" d="M 471.5 195.2 L 471.5 180.29999999999998 C 471.5 176.79999999999998 472.4 174.2 474.3 172.6 C 476.2 170.9 478.6 170.1 481.6 170.1 C 484.6 170.1 487 170.9 488.8 172.4 C 490.6 174 491.5 175.8 491.5 178.1 C 491.5 178.9 491.4 179.4 491.1 179.6 C 490.90000000000003 179.9 490.5 180 489.90000000000003 180 C 488.90000000000003 180 488.40000000000003 179.6 488.3 178.8 C 488.3 178.3 488.2 177.9 488.1 177.4 C 488 177 487.8 176.4 487.5 175.9 C 487.2 175.3 486.8 174.9 486.4 174.4 C 485.99999999999994 173.9 485.29999999999995 173.6 484.5 173.4 C 483.7 173.1 482.7 173 481.6 173 C 477 173 474.70000000000005 175.4 474.70000000000005 180.3 L 474.70000000000005 195.20000000000002 C 474.70000000000005 200.10000000000002 477.1 202.50000000000003 481.80000000000007 202.50000000000003 C 483.1000000000001 202.50000000000003 484.30000000000007 202.30000000000004 485.20000000000005 201.90000000000003 C 486.1 201.50000000000003 486.80000000000007 201.00000000000003 487.20000000000005 200.30000000000004 C 487.6 199.60000000000005 487.90000000000003 199.00000000000003 488.00000000000006 198.50000000000003 C 488.1000000000001 198.00000000000003 488.30000000000007 197.40000000000003 488.40000000000003 196.60000000000002 C 488.50000000000006 195.8 489.00000000000006 195.40000000000003 490.00000000000006 195.40000000000003 C 490.6000000000001 195.40000000000003 491.00000000000006 195.50000000000003 491.20000000000005 195.80000000000004 C 491.40000000000003 196.10000000000005 491.6 196.60000000000005 491.6 197.40000000000003 C 491.6 199.70000000000005 490.70000000000005 201.60000000000002 488.90000000000003 203.20000000000005 C 487.1 204.80000000000004 484.70000000000005 205.60000000000005 481.6 205.60000000000005 C 478.70000000000005 205.60000000000005 476.3 204.80000000000004 474.40000000000003 203.10000000000005 C 472.50000000000006 201.30000000000004 471.50000000000006 198.70000000000005 471.50000000000006 195.20000000000005 Z" stroke-linecap="round" />
</g>
		<g transform="matrix(1 0 0 1 138.65 77.65)" id="V30OOUacXcQ_Oe0rLzTMw"  >
<path style="stroke: none; stroke-width: 1; stroke-dasharray: none; stroke-linecap: butt; stroke-dashoffset: 0; stroke-linejoin: miter; stroke-miterlimit: 4; fill: rgb(65,65,65); fill-rule: nonzero; opacity: 1;" vector-effect="non-scaling-stroke"  transform=" translate(-538.65, -187.65)" d="M 528.5 204 L 528.5 171.3 C 528.5 170.5 529 170.10000000000002 530.1 170.10000000000002 C 531.2 170.10000000000002 531.7 170.50000000000003 531.7 171.3 L 531.7 185.70000000000002 L 545.6 185.70000000000002 L 545.6 171.3 C 545.6 170.5 546.1 170.10000000000002 547.2 170.10000000000002 C 548.3000000000001 170.10000000000002 548.8000000000001 170.50000000000003 548.8000000000001 171.3 L 548.8000000000001 204 C 548.8000000000001 204.4 548.6 204.7 548.3000000000001 204.9 C 548.0000000000001 205.10000000000002 547.6 205.20000000000002 547.2 205.20000000000002 C 546.8000000000001 205.20000000000002 546.4000000000001 205.10000000000002 546.1 204.9 C 545.8 204.7 545.6 204.4 545.6 204 L 545.6 188.4 L 531.7 188.4 L 531.7 204 C 531.7 204.4 531.5 204.7 531.2 204.9 C 530.9000000000001 205.10000000000002 530.5 205.20000000000002 530.1 205.20000000000002 C 529.7 205.20000000000002 529.3000000000001 205.10000000000002 529 204.9 C 528.6 204.6 528.5 204.3 528.5 204 Z" stroke-linecap="round" />
</g>
		<g transform="matrix(1 0 0 1 196.7 77.55)" id="GO0ev-KfVE92jmhsR5nHf"  >
<path style="stroke: none; stroke-width: 1; stroke-dasharray: none; stroke-linecap: butt; stroke-dashoffset: 0; stroke-linejoin: miter; stroke-miterlimit: 4; fill: rgb(65,65,65); fill-rule: nonzero; opacity: 1;" vector-effect="non-scaling-stroke"  transform=" translate(-596.7, -187.55)" d="M 584.8 203.9 L 584.8 203.6 L 594.8 171 C 595 170.3 595.5999999999999 169.9 596.6999999999999 169.9 C 597.6999999999999 169.9 598.4 170.3 598.5999999999999 171 L 608.5999999999999 203.7 L 608.5999999999999 203.89999999999998 C 608.5999999999999 204.29999999999998 608.3999999999999 204.59999999999997 607.9999999999999 204.79999999999998 C 607.5999999999999 205.1 607.1999999999999 205.2 606.6999999999999 205.2 C 606.0999999999999 205.2 605.6999999999999 204.89999999999998 605.4999999999999 204.39999999999998 L 603.2999999999998 196.99999999999997 L 589.9999999999999 196.99999999999997 L 587.7999999999998 204.39999999999998 C 587.6999999999998 204.89999999999998 587.2999999999998 205.2 586.4999999999999 205.2 C 585.9999999999999 205.2 585.5999999999999 205.1 585.1999999999999 204.79999999999998 C 584.9999999999999 204.6 584.8 204.2 584.8 203.89999999999998 Z M 590.9 194.3 L 602.5 194.3 L 596.7 174.9 L 590.9000000000001 194.3 Z" stroke-linecap="round" />
</g>
		<g transform="matrix(1 0 0 1 254.95 77.65)" id="9qnhJPm4ah77IiD6XNI0e"  >
<path style="stroke: none; stroke-width: 1; stroke-dasharray: none; stroke-linecap: butt; stroke-dashoffset: 0; stroke-linejoin: miter; stroke-miterlimit: 4; fill: rgb(65,65,65); fill-rule: nonzero; opacity: 1;" vector-effect="non-scaling-stroke"  transform=" translate(-654.95, -187.65)" d="M 644.8 204 L 644.8 171.4 C 644.8 170.6 645.3 170.20000000000002 646.4 170.20000000000002 C 647.3 170.20000000000002 648.1 170.9 648.9 172.4 L 661.9 197.9 L 661.9 171.3 C 661.9 170.5 662.4 170.10000000000002 663.5 170.10000000000002 C 664.6 170.10000000000002 665.1 170.50000000000003 665.1 171.3 L 665.1 204 C 665.1 204.4 664.9 204.7 664.6 204.9 C 664.3000000000001 205.10000000000002 663.9 205.20000000000002 663.5 205.20000000000002 C 662.7 205.20000000000002 662 204.60000000000002 661.4 203.4 L 648.1 177.4 L 648.1 204 C 648.1 204.4 647.9 204.7 647.6 204.9 C 647.3000000000001 205.10000000000002 646.9 205.20000000000002 646.5 205.20000000000002 C 646.1 205.20000000000002 645.7 205.10000000000002 645.4 204.9 C 644.9 204.6 644.8 204.3 644.8 204 Z" stroke-linecap="round" />
</g>
		<g transform="matrix(1 0 0 1 313.25 77.7)" id="pTzcK5MdtrK4J8d-eE_8D"  >
<path style="stroke: none; stroke-width: 1; stroke-dasharray: none; stroke-linecap: butt; stroke-dashoffset: 0; stroke-linejoin: miter; stroke-miterlimit: 4; fill: rgb(65,65,65); fill-rule: nonzero; opacity: 1;" vector-effect="non-scaling-stroke"  transform=" translate(-713.25, -187.7)" d="M 703.3 195.2 L 703.3 180.29999999999998 C 703.3 176.79999999999998 704.1999999999999 174.2 706 172.49999999999997 C 707.8 170.89999999999998 710.2 169.99999999999997 713.2 169.99999999999997 C 716.2 169.99999999999997 718.7 170.79999999999998 720.5 172.29999999999998 C 722.3 173.89999999999998 723.2 175.79999999999998 723.2 178.29999999999998 C 723.2 179.39999999999998 722.7 179.89999999999998 721.6 179.89999999999998 C 720.6 179.89999999999998 720 179.49999999999997 720 178.7 C 719.6 174.79999999999998 717.3 172.89999999999998 713.2 172.89999999999998 C 708.7 172.89999999999998 706.4000000000001 175.29999999999998 706.4000000000001 180.2 L 706.4000000000001 195.1 C 706.4000000000001 197.6 707.0000000000001 199.4 708.2 200.6 C 709.4 201.79999999999998 711.1 202.4 713.2 202.4 C 715.3000000000001 202.4 717.1 201.8 718.2 200.6 C 719.4000000000001 199.4 720 197.5 720 195.1 L 720 189.4 L 713.6 189.4 C 713.2 189.4 713 189.3 712.8000000000001 189 C 712.6 188.7 712.5000000000001 188.4 712.5000000000001 188 C 712.5000000000001 187.6 712.6000000000001 187.3 712.8000000000001 187.1 C 713 186.89999999999998 713.3000000000001 186.7 713.6 186.7 L 722 186.7 C 722.8 186.7 723.2 187.1 723.2 187.89999999999998 L 723.2 195.09999999999997 C 723.2 198.69999999999996 722.3000000000001 201.29999999999995 720.5 202.89999999999998 C 718.6999999999999 204.5 716.3 205.39999999999998 713.2 205.39999999999998 C 710.1000000000001 205.39999999999998 707.7 204.59999999999997 705.9000000000001 202.89999999999998 C 704.2 201.39999999999998 703.3000000000001 198.79999999999998 703.3000000000001 195.2 Z" stroke-linecap="round" />
</g>
		<g transform="matrix(1 0 0 1 370.95 77.75)" id="PEui_U93_-5VWRqdkP1f5"  >
<path style="stroke: none; stroke-width: 1; stroke-dasharray: none; stroke-linecap: butt; stroke-dashoffset: 0; stroke-linejoin: miter; stroke-miterlimit: 4; fill: rgb(65,65,65); fill-rule: nonzero; opacity: 1;" vector-effect="non-scaling-stroke"  transform=" translate(-770.95, -187.75)" d="M 761.1 204 L 761.1 171.4 C 761.1 171 761.2 170.70000000000002 761.5 170.5 C 761.8 170.29999999999998 762.1 170.2 762.5 170.2 L 779.6 170.2 C 780.4 170.2 780.8000000000001 170.7 780.8000000000001 171.6 C 780.8000000000001 172 780.7 172.4 780.5000000000001 172.7 C 780.3000000000002 172.99999999999997 780.0000000000001 173.2 779.6000000000001 173.2 L 764.2000000000002 173.2 L 764.2000000000002 186.39999999999998 L 771.7000000000002 186.39999999999998 C 772.1000000000001 186.39999999999998 772.4000000000002 186.49999999999997 772.6000000000001 186.79999999999998 C 772.8000000000002 187.1 772.9000000000001 187.39999999999998 772.9000000000001 187.79999999999998 C 772.9000000000001 188.7 772.5000000000001 189.1 771.7 189.1 L 764.2 189.1 L 764.2 202.4 L 779.6 202.4 C 780 202.4 780.2 202.5 780.5 202.8 C 780.7 203.10000000000002 780.8 203.4 780.8 203.9 C 780.8 204.9 780.4 205.3 779.5999999999999 205.3 L 762.4999999999999 205.3 C 762.0999999999999 205.3 761.7999999999998 205.20000000000002 761.4999999999999 205 C 761.2999999999998 204.6 761.0999999999999 204.3 761.0999999999999 204 Z" stroke-linecap="round" />
</g>
</g>
</g>
</svg>