<svg width="172" height="32" viewBox="0 0 172 32" fill="none" xmlns="http://www.w3.org/2000/svg">
<g clip-path="url(#clip0_307_7232)">
<path d="M138.074 4.00368C138.074 3.49925 138.27 3.12092 138.597 2.74259C138.989 2.36427 139.38 2.23816 139.903 2.23816C140.425 2.23816 140.882 2.42732 141.209 2.74259C141.601 3.05786 141.731 3.49925 141.731 4.00368C141.731 4.50812 141.535 4.94949 141.209 5.26477C140.882 5.64309 140.425 5.7692 139.903 5.7692C139.38 5.7692 138.923 5.58004 138.597 5.26477C138.27 4.88644 138.074 4.50812 138.074 4.00368Z" fill="white"/>
<path d="M52.1939 9.42641V13.0836C51.5408 12.3269 50.953 11.8224 50.4306 11.5072C49.9081 11.1919 49.3204 11.0658 48.6673 11.0658C47.6224 11.0658 46.7081 11.4441 45.9898 12.1377C45.3367 12.8313 45.0102 13.7771 45.0102 14.849C45.0102 15.9841 45.3367 16.8668 46.0551 17.5604C46.7735 18.254 47.6224 18.6323 48.6673 18.6323C49.3204 18.6323 49.9735 18.5062 50.4959 18.191C51.0183 17.9387 51.6061 17.3712 52.2592 16.6146V20.2086C51.0837 20.7762 49.9735 21.0915 48.7979 21.0915C46.9041 21.0915 45.3367 20.5239 44.0306 19.3259C42.7245 18.1279 42.1367 16.6776 42.1367 14.9121C42.1367 13.1466 42.7898 11.6333 44.0959 10.4353C45.402 9.23722 46.9694 8.60669 48.8632 8.60669C49.9735 8.60669 51.149 8.8589 52.1939 9.42641Z" fill="white"/>
<path d="M54.9375 8.92192H57.7457V9.99386C58.2681 9.48943 58.7253 9.11111 59.1171 8.92192C59.5089 8.7328 60.0314 8.60669 60.5538 8.60669C61.2722 8.60669 62.0559 8.8589 62.9048 9.30031L61.5987 11.8224C61.0763 11.4441 60.5538 11.255 60.0314 11.255C58.464 11.255 57.7457 12.3899 57.7457 14.6599V20.7762H54.9375V8.92192Z" fill="white"/>
<path d="M69.5677 18.5696L64.082 8.92224H67.3473L71.0698 15.7322L74.5963 8.92224H77.7963L68.0004 27.208H64.7351L69.5677 18.5696Z" fill="white"/>
<path d="M82.5621 27.2077H79.7539V8.9219H82.5621V10.183C83.6723 9.11109 84.9131 8.54358 86.3498 8.54358C88.0478 8.54358 89.4192 9.17411 90.5294 10.3722C91.6396 11.5702 92.1621 13.0835 92.1621 14.9121C92.1621 16.6776 91.6396 18.1909 90.5294 19.3259C89.4192 20.5239 88.0478 21.0914 86.4151 21.0914C84.9784 21.0914 83.6723 20.5239 82.5621 19.452V27.2077ZM89.2886 14.9121C89.2886 13.7771 88.9621 12.8313 88.309 12.1377C87.656 11.4441 86.8723 11.0658 85.8927 11.0658C84.8478 11.0658 83.9988 11.4441 83.3457 12.1377C82.6927 12.8313 82.3662 13.7771 82.3662 14.9121C82.3662 16.0471 82.6927 16.9298 83.3457 17.6865C83.9988 18.3801 84.8478 18.7584 85.8927 18.7584C86.8723 18.7584 87.656 18.3801 88.309 17.6865C88.9621 16.8668 89.2886 15.984 89.2886 14.9121Z" fill="white"/>
<path d="M98.3665 11.4443V20.7133H95.5583V11.4443H94.3828V8.92213H95.5583V4.57141H98.3665V8.92213H100.587V11.4443H98.3665Z" fill="white"/>
<path d="M102.09 14.7229C102.09 13.0204 102.743 11.5702 103.984 10.3722C105.225 9.17411 106.792 8.54358 108.62 8.54358C110.449 8.54358 112.016 9.17411 113.257 10.3722C114.498 11.5702 115.151 13.0835 115.151 14.849C115.151 16.6146 114.498 18.1278 113.257 19.3259C111.951 20.5239 110.449 21.0914 108.555 21.0914C106.727 21.0914 105.159 20.4609 103.918 19.2629C102.678 18.0648 102.09 16.5515 102.09 14.7229ZM104.963 14.786C104.963 15.984 105.29 16.9298 105.943 17.6234C106.596 18.317 107.51 18.6954 108.62 18.6954C109.731 18.6954 110.645 18.3801 111.298 17.6865C111.951 16.9929 112.278 16.0471 112.278 14.9121C112.278 13.7771 111.951 12.8313 111.298 12.1377C110.645 11.4441 109.731 11.0658 108.62 11.0658C107.51 11.0658 106.661 11.4441 106.008 12.1377C105.29 12.7682 104.963 13.7141 104.963 14.786Z" fill="white"/>
<path d="M118.156 8.9219H120.964V9.99383C121.487 9.42632 121.944 9.048 122.336 8.85888C122.728 8.66969 123.25 8.54358 123.903 8.54358C125.275 8.54358 126.385 9.11109 127.168 10.3091C128.083 9.11109 129.258 8.54358 130.76 8.54358C133.503 8.54358 134.875 10.183 134.875 13.3988V20.7131H132.001V14.1555C132.001 13.0204 131.871 12.2007 131.544 11.7594C131.283 11.255 130.76 11.0658 130.107 11.0658C129.324 11.0658 128.736 11.3811 128.409 11.8855C128.083 12.4529 127.887 13.3357 127.887 14.5968V20.7131H125.013V14.2185C125.013 12.1377 124.36 11.0658 123.12 11.0658C122.336 11.0658 121.748 11.3811 121.356 11.9485C120.964 12.516 120.834 13.4618 120.834 14.6599V20.7761H118.156V8.9219Z" fill="white"/>
<path d="M141.339 8.92224H138.531V20.7765H141.339V8.92224Z" fill="white"/>
<path d="M144.93 8.9219H147.803V9.99383C148.783 9.048 149.893 8.54358 151.134 8.54358C152.571 8.54358 153.681 8.98498 154.464 9.86773C155.183 10.6244 155.509 11.8224 155.509 13.4618V20.7131H152.636V14.1555C152.636 12.9574 152.44 12.2007 152.113 11.7594C151.787 11.318 151.199 11.0658 150.35 11.0658C149.436 11.0658 148.717 11.3811 148.326 11.9485C147.934 12.516 147.738 13.588 147.738 15.0382V20.7761H144.93V8.9219Z" fill="white"/>
<path d="M168.116 0.220581H170.989V20.7763H168.116V19.5152C167.005 20.5872 165.765 21.0916 164.328 21.0916C162.63 21.0916 161.258 20.5241 160.148 19.326C159.038 18.128 158.516 16.6147 158.516 14.7862C158.516 13.0206 159.038 11.5704 160.148 10.3723C161.258 9.17428 162.63 8.60683 164.263 8.60683C165.699 8.60683 167.005 9.17428 168.116 10.3093V0.220581ZM161.389 14.7862C161.389 15.9211 161.716 16.8669 162.303 17.5606C162.956 18.2541 163.74 18.6324 164.72 18.6324C165.765 18.6324 166.614 18.2541 167.267 17.5606C167.92 16.8669 168.246 15.9211 168.246 14.7862C168.246 13.6511 167.92 12.7684 167.267 12.0118C166.614 11.3181 165.765 10.9398 164.72 10.9398C163.74 10.9398 162.956 11.3181 162.303 12.0118C161.716 12.8315 161.389 13.7142 161.389 14.7862Z" fill="white"/>
<path d="M36.1959 19.8935L29.2735 5.70629C29.0776 5.26491 28.6204 5.0127 28.1633 5.0127H9.68163C9.22449 5.0127 8.83265 5.26491 8.57143 5.64324L0.146939 19.7674C-0.0489796 20.1457 -0.0489796 20.5871 0.146939 20.9655C0.342857 21.3438 0.8 21.596 1.25714 21.596H8.2449C8.70204 21.596 9.09388 21.3438 9.2898 21.0285L13.9918 13.3989L23.0041 13.462C23.7225 13.462 24.2449 12.8945 24.2449 12.2639C24.2449 11.5703 23.7225 11.0659 23.0041 11.0659L13.2735 10.9398C12.8163 10.9398 12.4245 11.192 12.1633 11.5073L7.46123 19.1369H3.41225L10.4 7.47185H27.3796L33.649 20.3349L31.3633 24.1812L26.1388 24.2443L28.2939 20.9024C28.4898 20.5871 28.5551 20.1457 28.3592 19.7674L27.1184 17.1822C26.8571 16.5516 26.0735 16.2994 25.4857 16.6147C24.8327 16.8669 24.5714 17.6236 24.898 18.1911L25.8776 20.2088L23.2653 24.3073L14.3184 24.3704L17.0612 20.3349H19.8694C20.5878 20.3349 21.1102 19.7674 21.1102 19.1369C21.1102 18.5064 20.5225 17.8758 19.8694 17.8758H16.4082C16.0163 17.8758 15.5592 18.065 15.3633 18.4433L7.59184 29.9192C7.59184 29.9192 7.52653 29.9822 7.52653 30.0453C7.52653 30.1083 7.46123 30.1083 7.46123 30.1714C7.46123 30.2344 7.46123 30.2344 7.46123 30.2975C7.46123 30.3605 7.46123 30.3605 7.39592 30.4236C7.39592 30.4867 7.39592 30.4867 7.39592 30.5497C7.39592 30.6128 7.39592 30.6128 7.39592 30.6758C7.39592 30.7389 7.39592 30.7389 7.39592 30.8019C7.39592 30.865 7.39592 30.865 7.39592 30.928C7.39592 30.9911 7.39592 30.9911 7.46123 31.0542C7.46123 31.1172 7.46123 31.1172 7.52653 31.1803C7.52653 31.2433 7.59184 31.2433 7.59184 31.3064C7.59184 31.3695 7.65714 31.3695 7.65714 31.4325C7.65714 31.4956 7.72245 31.4956 7.72245 31.5586L7.78776 31.6217C7.85306 31.6847 7.85306 31.6847 7.91837 31.6847L7.98368 31.7478C8.04898 31.8108 8.11429 31.8108 8.17959 31.8739C8.2449 31.8739 8.2449 31.9369 8.31021 31.9369C8.44082 32 8.57143 32 8.63674 32C8.76735 32 8.83265 32 8.96327 31.9369C8.96327 31.9369 8.96327 31.9369 9.02857 31.9369C9.09388 31.9369 9.22449 31.8739 9.2898 31.8739L9.3551 31.8108C9.42041 31.7478 9.48572 31.7478 9.48572 31.6847L9.55102 31.6217C9.61633 31.5586 9.68163 31.4956 9.68163 31.4325L12.6857 26.9556L32.0816 26.7034C32.5388 26.7034 32.9306 26.4512 33.1265 26.0729L36.0653 21.0916C36.3265 20.6502 36.3265 20.2719 36.1959 19.8935Z" fill="url(#paint0_linear_307_7232)"/>
</g>
<defs>
<linearGradient id="paint0_linear_307_7232" x1="8.19435" y1="33.6721" x2="25.6724" y2="7.25262" gradientUnits="userSpaceOnUse">
<stop stop-color="#54C8E0"/>
<stop offset="1" stop-color="#19E789"/>
</linearGradient>
<clipPath id="clip0_307_7232">
<rect width="171.102" height="32" fill="white"/>
</clipPath>
</defs>
</svg>
